<?xml version="1.0" encoding="UTF-8" standalone="no"?>
<svg
   version="1.1"
   width="500"
   height="500"
   id="svg1381"
   sodipodi:docname="Logow.svg"
   inkscape:export-filename="Logo.svg"
   inkscape:export-xdpi="96"
   inkscape:export-ydpi="96"
   xmlns:inkscape="http://www.inkscape.org/namespaces/inkscape"
   xmlns:sodipodi="http://sodipodi.sourceforge.net/DTD/sodipodi-0.dtd"
   xmlns="http://www.w3.org/2000/svg"
   xmlns:svg="http://www.w3.org/2000/svg">
  <defs
     id="defs1385" />
  <sodipodi:namedview
     id="namedview1383"
     pagecolor="#ffffff"
     bordercolor="#000000"
     borderopacity="0.25"
     inkscape:showpageshadow="2"
     inkscape:pageopacity="0.0"
     inkscape:pagecheckerboard="0"
     inkscape:deskcolor="#d1d1d1"
     showgrid="false"
     inkscape:zoom="0.986"
     inkscape:cx="249.4929"
     inkscape:cy="237.82961"
     inkscape:window-width="1366"
     inkscape:window-height="699"
     inkscape:window-x="0"
     inkscape:window-y="0"
     inkscape:window-maximized="1"
     inkscape:current-layer="svg1381" />
  <path
     d="m 156,124 c 15.1011,-0.0942 30.20219,-0.16434 45.30353,-0.20725 7.01464,-0.0205 14.02911,-0.0483 21.04364,-0.0945 6.78872,-0.0447 13.57725,-0.0675 20.36612,-0.0777 2.57032,-0.007 5.14063,-0.0216 7.71087,-0.0434 31.66649,-0.2581 63.35755,3.13435 87.45084,25.61042 16.96505,17.9145 18.93723,39.87328 18.3042,63.50342 C 355.38064,227.43714 348.6579,241.02239 339,252 c -0.63293,0.73863 -1.26586,1.47727 -1.91797,2.23828 C 328.22979,263.85451 316.45973,270.29576 304,274 c 1.48171,4.0184 3.39566,7.57852 5.5625,11.26953 0.34707,0.59273 0.69414,1.18546 1.05173,1.79614 1.1248,1.91787 2.25499,3.83248 3.38577,5.74683 0.78535,1.33486 1.57067,2.66974 2.35596,4.00464 4.11247,6.97684 8.28258,13.90848 12.63012,20.7417 4.94012,7.81721 9.59789,15.80696 14.30335,23.7666 4.52108,7.64665 9.0593,15.28094 13.68323,22.86597 0.39532,0.64865 0.79064,1.2973 1.19795,1.9656 1.88232,3.08579 3.76935,6.1686 5.66167,9.24826 0.66636,1.08958 1.33272,2.17916 2.01928,3.30176 0.58604,0.95367 1.17208,1.90733 1.77588,2.88989 C 369,384 369,384 370,387 c -3.8614,-1.43406 -7.29786,-3.23147 -10.84766,-5.31641 -0.56005,-0.32802 -1.1201,-0.65604 -1.69712,-0.994 -1.84146,-1.0803 -3.67968,-2.16599 -5.51772,-3.25209 -1.30139,-0.7657 -2.60282,-1.53132 -3.9043,-2.29688 -9.29912,-5.48019 -18.53476,-11.06136 -27.74649,-16.68692 -10.49186,-6.40569 -21.0726,-12.65121 -31.69687,-18.83456 -2.23695,-1.30341 -4.46853,-2.61611 -6.6936,-3.9397 -2.7641,-1.65232 -2.7641,-1.65232 -5.2124,-2.79443 -7.12163,-3.62359 -10.12299,-10.68105 -13.74634,-17.44751 -0.67326,-1.22564 -1.34838,-2.45025 -2.02539,-3.67383 -1.00199,-1.81291 -2.00128,-3.62695 -2.99039,-5.44693 -2.76187,-5.08064 -5.68685,-10.04923 -8.66952,-15.004 C 248,289 248,289 248,287 c -10.56,0 -21.12,0 -32,0 0,-14.85 0,-29.7 0,-45 15.625,-0.4375 15.625,-0.4375 20.45947,-0.56812 28.96167,-0.25244 28.96167,-0.25244 53.35303,-14.18188 6.78951,-10.08728 7.51125,-20.34969 6.1875,-32.25 -1.06964,-4.46638 -2.33526,-8.34718 -5.63672,-11.625 C 289,182 289,182 289,180 c -14.54167,-7.32168 -27.17519,-10.48692 -43.48828,-9.74609 -1.77662,0.0516 -3.55332,0.10035 -5.33008,0.14648 -2.7468,0.0737 -5.48874,0.16184 -8.23315,0.29907 -10.71522,0.51456 -18.57786,0.53435 -26.89701,-6.79228 -1.37,-1.28186 -2.71197,-2.5935 -4.05148,-3.90718 -1.21691,-0.98388 -2.44672,-1.95248 -3.69922,-2.89063 -0.98613,-0.77859 -1.97226,-1.55718 -2.98828,-2.35937 -5.44423,-4.28904 -10.90469,-8.55679 -16.375,-12.8125 -0.75741,-0.58967 -1.51481,-1.17933 -2.29517,-1.78687 -3.54749,-2.75848 -7.1016,-5.50714 -10.67749,-8.22876 -0.61029,-0.46527 -1.22058,-0.93054 -1.84936,-1.40991 -1.63272,-1.24246 -3.26853,-2.48087 -4.90454,-3.71899 C 157.48133,126.20129 156.75172,125.60961 156,125 c 0,-0.33 0,-0.66 0,-1 z"
     fill="#FEFEFE"
     id="path1377"
     style="fill:#f9f9f9" />
  <path
     d="m 156,287 c 19.68752,-0.17798 39.32644,0.3371 59,1 -1.63987,9.552 -4.49935,18.65945 -7.33984,27.90625 -0.52847,1.73282 -1.0565,3.46577 -1.58413,5.19885 -1.38379,4.54131 -2.77325,9.08087 -4.16398,13.62006 -1.40826,4.59971 -2.81137,9.20099 -4.21478,13.80218 -1.58154,5.1843 -3.16358,10.36844 -4.7495,15.55139 C 190.61178,371.71321 188.27819,379.34801 186,387 c -0.66,0 -1.32,0 -2,0 -3.50539,-12.29945 -7.00868,-24.59951 -10.50928,-36.90033 -1.62551,-5.71166 -3.25175,-11.42311 -4.87964,-17.13409 -1.5708,-5.51082 -3.1397,-11.02217 -4.70729,-16.5339 -0.59857,-2.10334 -1.19782,-4.20648 -1.79777,-6.30942 -0.83981,-2.94413 -1.67718,-5.88894 -2.51398,-8.83393 -0.24887,-0.87034 -0.49775,-1.74069 -0.75416,-2.6374 C 157.74219,294.78597 156.69757,290.96151 156,287 Z"
     fill="#FFFFFF"
     id="path1379"
     style="fill:#f9f9f9" />
</svg>
