<?xml version="1.0" encoding="UTF-8"?>
<svg version="1.1" xmlns="http://www.w3.org/2000/svg" width="500" height="500">
<path d="M0 0 C15.10110406 -0.09418655 30.20219449 -0.16433796 45.30352783 -0.20724869 C52.31817549 -0.22771832 59.33263881 -0.25553275 66.34716797 -0.30175781 C73.13589175 -0.34647282 79.92442536 -0.36923934 86.71328735 -0.37950897 C89.28360986 -0.38681313 91.85392379 -0.40107161 94.42416382 -0.42292023 C126.09065064 -0.68102355 157.78170871 2.71142963 181.875 25.1875 C198.84005232 43.1019956 200.81223367 65.0607814 200.17919922 88.69091797 C199.38063614 103.43713593 192.65790132 117.02238546 183 128 C182.36707031 128.73863281 181.73414063 129.47726563 181.08203125 130.23828125 C172.22978748 139.85450854 160.45973175 146.29575543 148 150 C149.48171383 154.01840419 151.39565939 157.57851526 153.5625 161.26953125 C153.90957001 161.8622583 154.25664001 162.45498535 154.61422729 163.06567383 C155.73902612 164.98354021 156.86922215 166.89815372 158 168.8125 C158.78535129 170.14736056 159.57067013 171.48224022 160.35595703 172.81713867 C164.46843046 179.79398239 168.63853938 186.72561738 172.98608398 193.55883789 C177.92620312 201.37604672 182.58396524 209.3658046 187.28942871 217.32543945 C191.81051447 224.97208664 196.34872901 232.60638282 200.97265625 240.19140625 C201.3679805 240.84005646 201.76330475 241.48870667 202.17060852 242.15701294 C204.05292761 245.24279878 205.93996056 248.32560819 207.83227539 251.40527344 C208.49864014 252.49485352 209.16500488 253.58443359 209.8515625 254.70703125 C210.43760254 255.6606958 211.02364258 256.61436035 211.62744141 257.59692383 C213 260 213 260 214 263 C210.13859778 261.56594155 206.70214215 259.76853075 203.15234375 257.68359375 C202.59229141 257.35557266 202.03223907 257.02755157 201.45521545 256.68959045 C199.61375607 255.6092897 197.77554134 254.52360457 195.9375 253.4375 C194.63611021 252.67180276 193.33467719 251.90617899 192.03320312 251.140625 C182.73407923 245.66042561 173.49843839 240.07925509 164.28671265 234.45370483 C153.79484665 228.04800522 143.21411211 221.80249356 132.58984375 215.61914062 C130.3528911 214.31572937 128.12131237 213.00303394 125.89624023 211.67944336 C123.1321434 210.02711619 123.1321434 210.02711619 120.68383789 208.88500977 C113.56220957 205.26142137 110.56085131 198.20395712 106.9375 191.4375 C106.26423577 190.21186376 105.58911525 188.98724531 104.91210938 187.76367188 C103.91011976 185.95075987 102.91083413 184.13671613 101.92172241 182.31674194 C99.1598554 177.23609514 96.23486652 172.26750858 93.25219727 167.31274414 C92 165 92 165 92 163 C81.44 163 70.88 163 60 163 C60 148.15 60 133.3 60 118 C75.625 117.5625 75.625 117.5625 80.45947266 117.43188477 C109.42113678 117.17944256 109.42113678 117.17944256 133.8125 103.25 C140.602014 93.16272205 141.3237488 82.90031374 140 71 C138.93036452 66.53361963 137.66473669 62.65281733 134.36328125 59.375 C133 58 133 58 133 56 C118.45833103 48.67832052 105.82481419 45.51307493 89.51171875 46.25390625 C87.7351048 46.30552056 85.9584054 46.35425922 84.18164062 46.40039062 C81.43484116 46.47408584 78.69289716 46.56223012 75.94848633 46.69946289 C65.23326754 47.21401653 57.37063418 47.2338131 49.05148315 39.90718079 C47.68148031 38.62532418 46.33951439 37.31368389 45 36 C43.78309285 35.01612076 42.55328122 34.04752488 41.30078125 33.109375 C40.31464844 32.33078125 39.32851562 31.5521875 38.3125 30.75 C32.86827393 26.46096455 27.40781467 22.19321061 21.9375 17.9375 C21.18009521 17.34783447 20.42269043 16.75816895 19.64233398 16.15063477 C16.09483728 13.39215092 12.54072824 10.64348592 8.96484375 7.921875 C8.35455322 7.456604 7.7442627 6.99133301 7.11547852 6.51196289 C5.4827568 5.26950037 3.84695389 4.03108979 2.2109375 2.79296875 C1.48132813 2.20128906 0.75171875 1.60960938 0 1 C0 0.67 0 0.34 0 0 Z " fill="#FEFEFE" transform="translate(156,124)"/>
<path d="M0 0 C19.68751623 -0.17798172 39.32644064 0.33710383 59 1 C57.3601283 10.55199726 54.50064956 19.65945107 51.66015625 28.90625 C51.13169203 30.6390717 50.6036591 32.37202498 50.07603455 34.10510254 C48.69224105 38.64641285 47.30278472 43.18597053 45.91204834 47.72515869 C44.50379519 52.32487224 43.10068176 56.92615254 41.69726562 61.52734375 C40.11572918 66.71164015 38.53368905 71.89577795 36.94776917 77.07873535 C34.61177847 84.71321063 32.2781939 92.34801442 30 100 C29.34 100 28.68 100 28 100 C24.49461197 87.70054491 20.99132508 75.40049351 17.49072361 63.09967518 C15.86521144 57.38801358 14.23897467 51.67656036 12.61108398 45.96557617 C11.04027945 40.45476131 9.47137565 34.94340859 7.90379143 29.43167686 C7.3052234 27.32834266 6.70596931 25.22520357 6.10601997 23.12226295 C5.26621305 20.17813136 4.42884209 17.23331719 3.59204102 14.28833008 C3.34316635 13.4179863 3.09429169 12.54764252 2.83787537 11.65092468 C1.7421899 7.78597205 0.69757397 3.96150592 0 0 Z " fill="#FFFFFF" transform="translate(156,287)"/>
</svg>
